<svg width="138" height="186" viewBox="0 0 138 186" fill="none" xmlns="http://www.w3.org/2000/svg">
<path d="M25.5 157.001L28.3868 152.001L22.6132 152.001L25.5 157.001ZM26 152.473L26 149.453L25 149.453L25 152.473L26 152.473ZM26 146.434L26 143.415L25 143.415L25 146.434L26 146.434ZM26 140.395L26 137.376L25 137.376L25 140.395L26 140.395ZM26 134.357L26 131.337L25 131.337L25 134.357L26 134.357ZM26 128.318L26 125.299L25 125.299L25 128.318L26 128.318ZM26 122.28L26 119.26L25 119.26L25 122.28L26 122.28ZM26 116.241L26 113.222L25 113.222L25 116.241L26 116.241ZM26 110.202L26 107.183L25 107.183L25 110.202L26 110.202ZM26 104.164L26 101.145L25 101.145L25 104.164L26 104.164ZM26 98.1253L26 95.106L25 95.106L25 98.1253L26 98.1253ZM26 92.0867L26 89.0674L25 89.0674L25 92.0867L26 92.0867ZM26 86.0481L26 83.0288L25 83.0288L25 86.0481L26 86.0481ZM26 80.0095L26 76.9902L25 76.9902L25 80.0095L26 80.0095ZM26 73.9709L26 70.9516L25 70.9516L25 73.9709L26 73.9709ZM26 67.9323L26 64.913L25 64.913L25 67.9323L26 67.9323ZM26 61.8937L26 58.8745L25 58.8745L25 61.8937L26 61.8937ZM26 55.8552L26 52.8359L25 52.8359L25 55.8552L26 55.8552ZM26 49.8166L26 46.7973L25 46.7973L25 49.8166L26 49.8166ZM26 43.778L26 40.7587L25 40.7587L25 43.778L26 43.778ZM26 37.7394L26 34.7201L25 34.7201L25 37.7394L26 37.7394ZM26 31.7008L26 28.6815L25 28.6815L25 31.7008L26 31.7008ZM26 25.6622L26 22.6429L25 22.6429L25 25.6622L26 25.6622ZM26 19.6236L26 16.6044L25 16.6044L25 19.6236L26 19.6236ZM26 13.5851L26 10.5658L25 10.5658L25 13.5851L26 13.5851ZM26 7.54649L26 4.52721L25 4.52721L25 7.54649L26 7.54649ZM26 1.50792L26 -0.00172424L25 -0.00172425L25 1.50792L26 1.50792Z" fill="url(#paint0_linear_326_10)" fill-opacity="0.7"/>
<path d="M138 156L133 153.113L133 158.887L138 156ZM133.417 155.5L130.361 155.5L130.361 156.5L133.417 156.5L133.417 155.5ZM127.306 155.5L124.25 155.5L124.25 156.5L127.306 156.5L127.306 155.5ZM121.194 155.5L118.139 155.5L118.139 156.5L121.194 156.5L121.194 155.5ZM115.083 155.5L112.028 155.5L112.028 156.5L115.083 156.5L115.083 155.5ZM108.972 155.5L105.917 155.5L105.917 156.5L108.972 156.5L108.972 155.5ZM102.861 155.5L99.8056 155.5L99.8056 156.5L102.861 156.5L102.861 155.5ZM96.75 155.5L93.6944 155.5L93.6944 156.5L96.75 156.5L96.75 155.5ZM90.6389 155.5L87.5833 155.5L87.5833 156.5L90.6389 156.5L90.6389 155.5ZM84.5278 155.5L81.4722 155.5L81.4722 156.5L84.5278 156.5L84.5278 155.5ZM78.4167 155.5L75.3611 155.5L75.3611 156.5L78.4167 156.5L78.4167 155.5ZM72.3055 155.5L69.25 155.5L69.25 156.5L72.3055 156.5L72.3055 155.5ZM66.1944 155.5L63.1389 155.5L63.1389 156.5L66.1944 156.5L66.1944 155.5ZM60.0833 155.5L57.0278 155.5L57.0278 156.5L60.0833 156.5L60.0833 155.5ZM53.9722 155.5L50.9166 155.5L50.9166 156.5L53.9722 156.5L53.9722 155.5ZM47.8611 155.5L44.8055 155.5L44.8055 156.5L47.8611 156.5L47.8611 155.5ZM41.75 155.5L38.6944 155.5L38.6944 156.5L41.75 156.5L41.75 155.5ZM35.6389 155.5L32.5833 155.5L32.5833 156.5L35.6389 156.5L35.6389 155.5ZM29.5277 155.5L28 155.5L28 156.5L29.5277 156.5L29.5277 155.5Z" fill="url(#paint1_linear_326_10)" fill-opacity="0.7"/>
<g filter="url(#filter0_biii_326_10)">
<circle cx="26.2048" cy="159.205" r="18.6004" transform="rotate(-40 26.2048 159.205)" fill="url(#paint2_linear_326_10)"/>
</g>
<defs>
<filter id="filter0_biii_326_10" x="-3.55623" y="129.444" width="59.522" height="59.5219" filterUnits="userSpaceOnUse" color-interpolation-filters="sRGB">
<feFlood flood-opacity="0" result="BackgroundImageFix"/>
<feGaussianBlur in="BackgroundImageFix" stdDeviation="5.58011"/>
<feComposite in2="SourceAlpha" operator="in" result="effect1_backgroundBlur_326_10"/>
<feBlend mode="normal" in="SourceGraphic" in2="effect1_backgroundBlur_326_10" result="shape"/>
<feColorMatrix in="SourceAlpha" type="matrix" values="0 0 0 0 0 0 0 0 0 0 0 0 0 0 0 0 0 0 127 0" result="hardAlpha"/>
<feOffset dy="7.44015"/>
<feGaussianBlur stdDeviation="3.72007"/>
<feComposite in2="hardAlpha" operator="arithmetic" k2="-1" k3="1"/>
<feColorMatrix type="matrix" values="0 0 0 0 0 0 0 0 0 0 0 0 0 0 0 0 0 0 0.25 0"/>
<feBlend mode="normal" in2="shape" result="effect2_innerShadow_326_10"/>
<feColorMatrix in="SourceAlpha" type="matrix" values="0 0 0 0 0 0 0 0 0 0 0 0 0 0 0 0 0 0 127 0" result="hardAlpha"/>
<feOffset dy="-11.1602"/>
<feGaussianBlur stdDeviation="3.72007"/>
<feComposite in2="hardAlpha" operator="arithmetic" k2="-1" k3="1"/>
<feColorMatrix type="matrix" values="0 0 0 0 0 0 0 0 0 0 0 0 0 0 0 0 0 0 0.25 0"/>
<feBlend mode="normal" in2="effect2_innerShadow_326_10" result="effect3_innerShadow_326_10"/>
<feColorMatrix in="SourceAlpha" type="matrix" values="0 0 0 0 0 0 0 0 0 0 0 0 0 0 0 0 0 0 127 0" result="hardAlpha"/>
<feOffset/>
<feGaussianBlur stdDeviation="1.86004"/>
<feComposite in2="hardAlpha" operator="arithmetic" k2="-1" k3="1"/>
<feColorMatrix type="matrix" values="0 0 0 0 0 0 0 0 0 0.466667 0 0 0 0 0.101961 0 0 0 1 0"/>
<feBlend mode="normal" in2="effect3_innerShadow_326_10" result="effect4_innerShadow_326_10"/>
</filter>
<linearGradient id="paint0_linear_326_10" x1="25.5941" y1="139.731" x2="26.9704" y2="139.726" gradientUnits="userSpaceOnUse">
<stop stop-color="#21E786"/>
<stop offset="1" stop-color="#33BC24"/>
</linearGradient>
<linearGradient id="paint1_linear_326_10" x1="125.9" y1="155.906" x2="125.893" y2="154.53" gradientUnits="userSpaceOnUse">
<stop stop-color="#21E786"/>
<stop offset="1" stop-color="#33BC24"/>
</linearGradient>
<linearGradient id="paint2_linear_326_10" x1="26.2048" y1="140.604" x2="26.2048" y2="177.805" gradientUnits="userSpaceOnUse">
<stop stop-color="#00771A"/>
<stop offset="0.583333" stop-color="#00771A" stop-opacity="0.416667"/>
<stop offset="1" stop-color="#00771A" stop-opacity="0"/>
</linearGradient>
</defs>
</svg>
