<svg width="267" height="149" viewBox="0 0 267 149" fill="none" xmlns="http://www.w3.org/2000/svg">
<path d="M0 24L5 26.8868V21.1132L0 24ZM4.46341 24.5H7.43902V23.5H4.46341V24.5ZM10.4146 24.5H13.3902V23.5H10.4146V24.5ZM16.3659 24.5H19.3415V23.5H16.3659V24.5ZM22.3171 24.5H25.2927V23.5H22.3171V24.5ZM28.2683 24.5H31.2439V23.5H28.2683V24.5ZM34.2195 24.5H37.1951V23.5H34.2195V24.5ZM40.1707 24.5H43.1463V23.5H40.1707V24.5ZM46.1219 24.5H49.0976V23.5H46.1219V24.5ZM52.0732 24.5H55.0488V23.5H52.0732V24.5ZM58.0244 24.5H61V23.5H58.0244V24.5ZM63.9756 24.5H66.9512V23.5H63.9756V24.5ZM69.9268 24.5H72.9024V23.5H69.9268V24.5ZM75.878 24.5H78.8536V23.5H75.878V24.5ZM81.8293 24.5H84.8049V23.5H81.8293V24.5ZM87.7805 24.5H90.7561V23.5H87.7805V24.5ZM93.7317 24.5H96.7073V23.5H93.7317V24.5ZM99.6829 24.5H102.659V23.5H99.6829V24.5ZM105.634 24.5H108.61V23.5H105.634V24.5ZM111.585 24.5H114.561V23.5H111.585V24.5ZM117.537 24.5H120.512V23.5H117.537V24.5ZM123.488 24.5H126.463V23.5H123.488V24.5ZM129.439 24.5H132.415V23.5H129.439V24.5ZM135.39 24.5H138.366V23.5H135.39V24.5ZM141.341 24.5H144.317V23.5H141.341V24.5ZM147.293 24.5H150.268V23.5H147.293V24.5ZM153.244 24.5H156.22V23.5H153.244V24.5ZM159.195 24.5H162.171V23.5H159.195V24.5ZM165.146 24.5H168.122V23.5H165.146V24.5ZM171.098 24.5H174.073V23.5H171.098V24.5ZM177.049 24.5H180.024V23.5H177.049V24.5ZM183 24.5H185.976V23.5H183V24.5ZM188.951 24.5H191.927V23.5H188.951V24.5ZM194.903 24.5H197.878V23.5H194.903V24.5ZM200.854 24.5H203.829V23.5H200.854V24.5ZM206.805 24.5H209.781V23.5H206.805V24.5ZM212.756 24.5H215.732V23.5H212.756V24.5ZM218.707 24.5H221.683V23.5H218.707V24.5ZM224.659 24.5H227.634V23.5H224.659V24.5ZM230.61 24.5H233.586V23.5H230.61V24.5ZM236.561 24.5H239.537V23.5H236.561V24.5ZM242.512 24.5H244V23.5H242.512V24.5Z" fill="url(#paint0_linear_326_9)" fill-opacity="0.7"/>
<path d="M245 24L242.073 28.9767L247.847 29.0229L245 24ZM244.464 28.4603L244.44 31.4365L245.44 31.4445L245.464 28.4683L244.464 28.4603ZM244.417 34.4127L244.393 37.3889L245.393 37.3969L245.417 34.4207L244.417 34.4127ZM244.369 40.365L244.345 43.3412L245.345 43.3492L245.369 40.373L244.369 40.365ZM244.321 46.3174L244.298 49.2936L245.298 49.3016L245.321 46.3254L244.321 46.3174ZM244.274 52.2698L244.25 55.246L245.25 55.254L245.274 52.2778L244.274 52.2698ZM244.226 58.2222L244.202 61.1984L245.202 61.2064L245.226 58.2302L244.226 58.2222ZM244.179 64.1746L244.155 67.1508L245.155 67.1588L245.179 64.1826L244.179 64.1746ZM244.131 70.1269L244.107 73.1031L245.107 73.1111L245.131 70.1349L244.131 70.1269ZM244.083 76.0793L244.06 79.0555L245.06 79.0635L245.083 76.0873L244.083 76.0793ZM244.036 82.0317L244.012 85.0079L245.012 85.0159L245.036 82.0397L244.036 82.0317ZM243.988 87.9841L243.964 90.9603L244.964 90.9683L244.988 87.9921L243.988 87.9841ZM243.94 93.9365L243.917 96.9127L244.917 96.9207L244.94 93.9445L243.94 93.9365ZM243.893 99.8888L243.869 102.865L244.869 102.873L244.893 99.8968L243.893 99.8888ZM243.845 105.841L243.821 108.817L244.821 108.825L244.845 105.849L243.845 105.841ZM243.798 111.794L243.774 114.77L244.774 114.778L244.798 111.802L243.798 111.794ZM243.75 117.746L243.726 120.722L244.726 120.73L244.75 117.754L243.75 117.746ZM243.702 123.698L243.679 126.675L244.679 126.683L244.702 123.706L243.702 123.698ZM243.655 129.651L243.631 132.627L244.631 132.635L244.655 129.659L243.655 129.651ZM243.607 135.603L243.583 138.579L244.583 138.587L244.607 135.611L243.607 135.603ZM243.56 141.556L243.536 144.532L244.536 144.54L244.56 141.564L243.56 141.556ZM243.512 147.508L243.5 148.996L244.5 149.004L244.512 147.516L243.512 147.508Z" fill="url(#paint1_linear_326_9)" fill-opacity="0.7"/>
<g filter="url(#filter0_biii_326_9)">
<circle cx="240.205" cy="26.2047" r="18.6004" transform="rotate(-40 240.205 26.2047)" fill="url(#paint2_linear_326_9)"/>
</g>
<defs>
<filter id="filter0_biii_326_9" x="210.444" y="-3.55634" width="59.522" height="59.5221" filterUnits="userSpaceOnUse" color-interpolation-filters="sRGB">
<feFlood flood-opacity="0" result="BackgroundImageFix"/>
<feGaussianBlur in="BackgroundImageFix" stdDeviation="5.58011"/>
<feComposite in2="SourceAlpha" operator="in" result="effect1_backgroundBlur_326_9"/>
<feBlend mode="normal" in="SourceGraphic" in2="effect1_backgroundBlur_326_9" result="shape"/>
<feColorMatrix in="SourceAlpha" type="matrix" values="0 0 0 0 0 0 0 0 0 0 0 0 0 0 0 0 0 0 127 0" result="hardAlpha"/>
<feOffset dy="7.44015"/>
<feGaussianBlur stdDeviation="3.72007"/>
<feComposite in2="hardAlpha" operator="arithmetic" k2="-1" k3="1"/>
<feColorMatrix type="matrix" values="0 0 0 0 0 0 0 0 0 0 0 0 0 0 0 0 0 0 0.25 0"/>
<feBlend mode="normal" in2="shape" result="effect2_innerShadow_326_9"/>
<feColorMatrix in="SourceAlpha" type="matrix" values="0 0 0 0 0 0 0 0 0 0 0 0 0 0 0 0 0 0 127 0" result="hardAlpha"/>
<feOffset dy="-11.1602"/>
<feGaussianBlur stdDeviation="3.72007"/>
<feComposite in2="hardAlpha" operator="arithmetic" k2="-1" k3="1"/>
<feColorMatrix type="matrix" values="0 0 0 0 0 0 0 0 0 0 0 0 0 0 0 0 0 0 0.25 0"/>
<feBlend mode="normal" in2="effect2_innerShadow_326_9" result="effect3_innerShadow_326_9"/>
<feColorMatrix in="SourceAlpha" type="matrix" values="0 0 0 0 0 0 0 0 0 0 0 0 0 0 0 0 0 0 127 0" result="hardAlpha"/>
<feOffset/>
<feGaussianBlur stdDeviation="1.86004"/>
<feComposite in2="hardAlpha" operator="arithmetic" k2="-1" k3="1"/>
<feColorMatrix type="matrix" values="0 0 0 0 0 0 0 0 0 0.466667 0 0 0 0 0.101961 0 0 0 1 0"/>
<feBlend mode="normal" in2="effect3_innerShadow_326_9" result="effect4_innerShadow_326_9"/>
</filter>
<linearGradient id="paint0_linear_326_9" x1="26.84" y1="24.0941" x2="26.843" y2="25.4704" gradientUnits="userSpaceOnUse">
<stop stop-color="#21E786"/>
<stop offset="1" stop-color="#33BC24"/>
</linearGradient>
<linearGradient id="paint1_linear_326_9" x1="244.796" y1="37.7492" x2="243.42" y2="37.7441" gradientUnits="userSpaceOnUse">
<stop stop-color="#21E786"/>
<stop offset="1" stop-color="#33BC24"/>
</linearGradient>
<linearGradient id="paint2_linear_326_9" x1="240.205" y1="7.60437" x2="240.205" y2="44.8051" gradientUnits="userSpaceOnUse">
<stop stop-color="#00771A"/>
<stop offset="0.583333" stop-color="#00771A" stop-opacity="0.416667"/>
<stop offset="1" stop-color="#00771A" stop-opacity="0"/>
</linearGradient>
</defs>
</svg>
