<svg width="77" height="69" viewBox="0 0 77 69" fill="none" xmlns="http://www.w3.org/2000/svg">
<path d="M54.3899 15.6043C55.442 9.34363 51.2197 3.41546 44.9591 2.3633C38.6985 1.31114 32.7703 5.53342 31.7181 11.794C30.666 18.0547 34.8883 23.9828 41.1489 25.035C47.4095 26.0872 53.3377 21.8649 54.3899 15.6043Z" fill="url(#paint0_linear_328_15)"/>
<path d="M76.8974 39.6868C76.8481 39.5637 76.7522 39.4651 76.6306 39.4123C76.509 39.3595 76.3715 39.3568 76.2479 39.4048C74.9842 39.9083 73.9067 39.8579 73.1011 39.3041C73.3566 38.9911 73.5809 38.6538 73.7707 38.2971C74.7223 36.4644 74.2742 35.4322 73.9419 34.974C73.7453 34.7135 73.4781 34.5147 73.1721 34.4014C72.866 34.2881 72.5338 34.2649 72.2149 34.3346C71.8784 34.411 71.5713 34.5834 71.3308 34.831C71.0904 35.0786 70.927 35.3906 70.8605 35.7293C70.7445 36.3505 70.7566 36.9889 70.8959 37.6054C71.0353 38.2218 71.2991 38.8033 71.6712 39.3142C70.9484 39.8527 70.0507 40.1023 69.1537 40.014C68.9221 26.8879 55.2118 16.3044 38.3296 16.3044C35.2684 16.3044 29.5235 17.3114 29.5235 17.3114C29.5235 17.3114 22.978 10.3228 20.3296 12.0498C16.3872 14.6277 16.4275 23.4389 16.4275 23.4389C9.50947 27.9704 7.96374 36.1723 7.96374 36.1723L3.28122 37.2599L0.547234 42.0985C4.83067 50.1029 11.5982 56.4993 19.8312 60.3251L16.4275 68.8241H25.1682L26.0846 62.7167C29.4212 63.7573 32.8869 64.3267 36.3811 64.4084L36.3257 64.348C36.9903 64.3833 37.6549 64.4084 38.3397 64.4084C41.8376 64.4148 45.3201 63.9456 48.6916 63.0137L49.5928 68.7989H58.3386L55.0407 60.5617C63.3383 56.3928 68.9069 49.2079 69.1939 40.9958H69.5061C70.554 41.0126 71.5754 40.6657 72.3962 40.014C73.2018 40.6384 74.5562 41.1419 76.6255 40.3312C76.7456 40.28 76.841 40.1841 76.8917 40.0639C76.9424 39.9437 76.9445 39.8085 76.8974 39.6868ZM72.366 38.574C71.8477 37.801 71.6508 36.8565 71.8172 35.9407C71.8401 35.7888 71.908 35.6472 72.0121 35.5342C72.1162 35.4211 72.2517 35.3418 72.4012 35.3063H72.5523C72.6618 35.3059 72.7698 35.3312 72.8678 35.3802C72.9657 35.4292 73.0508 35.5005 73.1162 35.5883C73.4535 36.0263 73.3528 36.8672 72.8493 37.8288C72.7189 38.0903 72.5656 38.3397 72.3911 38.574H72.366Z" fill="url(#paint1_linear_328_15)"/>
<defs>
<linearGradient id="paint0_linear_328_15" x1="43.0482" y1="2.20957" x2="43.0482" y2="25.2042" gradientUnits="userSpaceOnUse">
<stop stop-color="#FFEBB5"/>
<stop offset="0.11" stop-color="#FFE9AD"/>
<stop offset="0.28" stop-color="#FFE396"/>
<stop offset="0.49" stop-color="#FFD971"/>
<stop offset="0.74" stop-color="#FFCC3E"/>
<stop offset="1" stop-color="#FFBC00"/>
</linearGradient>
<linearGradient id="paint1_linear_328_15" x1="38.7525" y1="11.7528" x2="38.7525" y2="68.7989" gradientUnits="userSpaceOnUse">
<stop stop-color="white" stop-opacity="0.9"/>
<stop offset="0.04" stop-color="white" stop-opacity="0.83"/>
<stop offset="0.12" stop-color="white" stop-opacity="0.68"/>
<stop offset="0.19" stop-color="white" stop-opacity="0.58"/>
<stop offset="0.26" stop-color="white" stop-opacity="0.52"/>
<stop offset="0.32" stop-color="white" stop-opacity="0.5"/>
<stop offset="0.49" stop-color="#FEFEFE" stop-opacity="0.48"/>
<stop offset="0.69" stop-color="#FAFAFA" stop-opacity="0.43"/>
<stop offset="0.9" stop-color="#F3F3F3" stop-opacity="0.35"/>
<stop offset="1" stop-color="#EFEFEF" stop-opacity="0.3"/>
</linearGradient>
</defs>
</svg>
