<svg width="190" height="180" viewBox="0 0 190 180" fill="none" xmlns="http://www.w3.org/2000/svg">
<path d="M27 23L24.0815 27.9815L29.8548 28.0183L27 23ZM26.4712 27.5257L26.4519 30.5449L27.4519 30.5513L27.4711 27.532L26.4712 27.5257ZM26.4327 33.5641L26.4135 36.5834L27.4135 36.5897L27.4327 33.5705L26.4327 33.5641ZM26.3942 39.6026L26.375 42.6218L27.375 42.6282L27.3942 39.609L26.3942 39.6026ZM26.3558 45.641L26.3365 48.6603L27.3365 48.6666L27.3558 45.6474L26.3558 45.641ZM26.3173 51.6795L26.2981 54.6987L27.2981 54.7051L27.3173 51.6859L26.3173 51.6795ZM26.2789 57.718L26.2596 60.7372L27.2596 60.7436L27.2788 57.7243L26.2789 57.718ZM26.2404 63.7564L26.2212 66.7757L27.2211 66.782L27.2404 63.7628L26.2404 63.7564ZM26.2019 69.7949L26.1827 72.8141L27.1827 72.8205L27.2019 69.8013L26.2019 69.7949ZM26.1635 75.8334L26.1442 78.8526L27.1442 78.8589L27.1634 75.8397L26.1635 75.8334ZM26.125 81.8718L26.1058 84.891L27.1058 84.8974L27.125 81.8782L26.125 81.8718ZM26.0865 87.9103L26.0673 90.9295L27.0673 90.9359L27.0865 87.9166L26.0865 87.9103ZM26.0481 93.9487L26.0289 96.968L27.0288 96.9743L27.0481 93.9551L26.0481 93.9487ZM26.0096 99.9872L25.9904 103.006L26.9904 103.013L27.0096 99.9936L26.0096 99.9872ZM25.9712 106.026L25.9519 109.045L26.9519 109.051L26.9711 106.032L25.9712 106.026ZM25.9327 112.064L25.9135 115.083L26.9134 115.09L26.9327 112.071L25.9327 112.064ZM25.8942 118.103L25.875 121.122L26.875 121.128L26.8942 118.109L25.8942 118.103ZM25.8558 124.141L25.8365 127.16L26.8365 127.167L26.8558 124.147L25.8558 124.141ZM25.8173 130.18L25.7981 133.199L26.7981 133.205L26.8173 130.186L25.8173 130.18ZM25.7789 136.218L25.7596 139.237L26.7596 139.244L26.7788 136.224L25.7789 136.218ZM25.7404 142.256L25.7212 145.276L26.7211 145.282L26.7404 142.263L25.7404 142.256ZM25.7019 148.295L25.6827 151.314L26.6827 151.321L26.7019 148.301L25.7019 148.295ZM25.6635 154.333L25.6442 157.353L26.6442 157.359L26.6634 154.34L25.6635 154.333ZM25.625 160.372L25.6058 163.391L26.6058 163.397L26.625 160.378L25.625 160.372ZM25.5865 166.41L25.5673 169.43L26.5673 169.436L26.5865 166.417L25.5865 166.41ZM25.5481 172.449L25.5289 175.468L26.5288 175.474L26.5481 172.455L25.5481 172.449ZM25.5096 178.487L25.5 179.997L26.5 180.003L26.5096 178.494L25.5096 178.487Z" fill="url(#paint0_linear_326_8)" fill-opacity="0.7"/>
<path d="M190 24L185 21.1132L185 26.8868L190 24ZM185.528 23.5L182.546 23.5L182.546 24.5L185.528 24.5L185.528 23.5ZM179.565 23.5L176.583 23.5L176.583 24.5L179.565 24.5L179.565 23.5ZM173.602 23.5L170.62 23.5L170.62 24.5L173.602 24.5L173.602 23.5ZM167.639 23.5L164.657 23.5L164.657 24.5L167.639 24.5L167.639 23.5ZM161.676 23.5L158.694 23.5L158.694 24.5L161.676 24.5L161.676 23.5ZM155.713 23.5L152.731 23.5L152.731 24.5L155.713 24.5L155.713 23.5ZM149.75 23.5L146.769 23.5L146.769 24.5L149.75 24.5L149.75 23.5ZM143.787 23.5L140.806 23.5L140.806 24.5L143.787 24.5L143.787 23.5ZM137.824 23.5L134.843 23.5L134.843 24.5L137.824 24.5L137.824 23.5ZM131.861 23.5L128.88 23.5L128.88 24.5L131.861 24.5L131.861 23.5ZM125.898 23.5L122.917 23.5L122.917 24.5L125.898 24.5L125.898 23.5ZM119.935 23.5L116.954 23.5L116.954 24.5L119.935 24.5L119.935 23.5ZM113.972 23.5L110.991 23.5L110.991 24.5L113.972 24.5L113.972 23.5ZM108.009 23.5L105.028 23.5L105.028 24.5L108.009 24.5L108.009 23.5ZM102.046 23.5L99.0648 23.5L99.0648 24.5L102.046 24.5L102.046 23.5ZM96.0833 23.5L93.1018 23.5L93.1018 24.5L96.0833 24.5L96.0833 23.5ZM90.1203 23.5L87.1388 23.5L87.1388 24.5L90.1203 24.5L90.1203 23.5ZM84.1574 23.5L81.1759 23.5L81.1759 24.5L84.1574 24.5L84.1574 23.5ZM78.1944 23.5L75.2129 23.5L75.2129 24.5L78.1944 24.5L78.1944 23.5ZM72.2314 23.5L69.2499 23.5L69.2499 24.5L72.2314 24.5L72.2314 23.5ZM66.2685 23.5L63.287 23.5L63.287 24.5L66.2685 24.5L66.2685 23.5ZM60.3055 23.5L57.324 23.5L57.324 24.5L60.3055 24.5L60.3055 23.5ZM54.3425 23.5L51.3611 23.5L51.3611 24.5L54.3425 24.5L54.3425 23.5ZM48.3796 23.5L45.3981 23.5L45.3981 24.5L48.3796 24.5L48.3796 23.5ZM42.4166 23.5L39.4352 23.5L39.4352 24.5L42.4166 24.5L42.4166 23.5ZM36.4537 23.5L33.4722 23.5L33.4722 24.5L36.4537 24.5L36.4537 23.5ZM30.4907 23.5L29 23.5L29 24.5L30.4907 24.5L30.4907 23.5Z" fill="url(#paint1_linear_326_8)" fill-opacity="0.7"/>
<g filter="url(#filter0_biii_326_8)">
<circle cx="26.2048" cy="26.2047" r="18.6004" transform="rotate(-40 26.2048 26.2047)" fill="url(#paint2_linear_326_8)"/>
</g>
<defs>
<filter id="filter0_biii_326_8" x="-3.55622" y="-3.55634" width="59.522" height="59.5221" filterUnits="userSpaceOnUse" color-interpolation-filters="sRGB">
<feFlood flood-opacity="0" result="BackgroundImageFix"/>
<feGaussianBlur in="BackgroundImageFix" stdDeviation="5.58011"/>
<feComposite in2="SourceAlpha" operator="in" result="effect1_backgroundBlur_326_8"/>
<feBlend mode="normal" in="SourceGraphic" in2="effect1_backgroundBlur_326_8" result="shape"/>
<feColorMatrix in="SourceAlpha" type="matrix" values="0 0 0 0 0 0 0 0 0 0 0 0 0 0 0 0 0 0 127 0" result="hardAlpha"/>
<feOffset dy="7.44015"/>
<feGaussianBlur stdDeviation="3.72007"/>
<feComposite in2="hardAlpha" operator="arithmetic" k2="-1" k3="1"/>
<feColorMatrix type="matrix" values="0 0 0 0 0 0 0 0 0 0 0 0 0 0 0 0 0 0 0.25 0"/>
<feBlend mode="normal" in2="shape" result="effect2_innerShadow_326_8"/>
<feColorMatrix in="SourceAlpha" type="matrix" values="0 0 0 0 0 0 0 0 0 0 0 0 0 0 0 0 0 0 127 0" result="hardAlpha"/>
<feOffset dy="-11.1602"/>
<feGaussianBlur stdDeviation="3.72007"/>
<feComposite in2="hardAlpha" operator="arithmetic" k2="-1" k3="1"/>
<feColorMatrix type="matrix" values="0 0 0 0 0 0 0 0 0 0 0 0 0 0 0 0 0 0 0.25 0"/>
<feBlend mode="normal" in2="effect2_innerShadow_326_8" result="effect3_innerShadow_326_8"/>
<feColorMatrix in="SourceAlpha" type="matrix" values="0 0 0 0 0 0 0 0 0 0 0 0 0 0 0 0 0 0 127 0" result="hardAlpha"/>
<feOffset/>
<feGaussianBlur stdDeviation="1.86004"/>
<feComposite in2="hardAlpha" operator="arithmetic" k2="-1" k3="1"/>
<feColorMatrix type="matrix" values="0 0 0 0 0 0 0 0 0 0.466667 0 0 0 0 0.101961 0 0 0 1 0"/>
<feBlend mode="normal" in2="effect3_innerShadow_326_8" result="effect4_innerShadow_326_8"/>
</filter>
<linearGradient id="paint0_linear_326_8" x1="26.7959" y1="40.2694" x2="25.4196" y2="40.2653" gradientUnits="userSpaceOnUse">
<stop stop-color="#21E786"/>
<stop offset="1" stop-color="#33BC24"/>
</linearGradient>
<linearGradient id="paint1_linear_326_8" x1="172.29" y1="23.9059" x2="172.285" y2="22.5296" gradientUnits="userSpaceOnUse">
<stop stop-color="#21E786"/>
<stop offset="1" stop-color="#33BC24"/>
</linearGradient>
<linearGradient id="paint2_linear_326_8" x1="26.2048" y1="7.60437" x2="26.2048" y2="44.8051" gradientUnits="userSpaceOnUse">
<stop stop-color="#00771A"/>
<stop offset="0.583333" stop-color="#00771A" stop-opacity="0.416667"/>
<stop offset="1" stop-color="#00771A" stop-opacity="0"/>
</linearGradient>
</defs>
</svg>
