<svg width="18" height="21" viewBox="0 0 18 21" fill="none" xmlns="http://www.w3.org/2000/svg">
<path fill-rule="evenodd" clip-rule="evenodd" d="M13.9303 5.29156C13.9621 5.22069 13.977 5.14345 13.9739 5.06589H14C13.8882 2.39747 11.6849 0.291565 9.00494 0.291565C6.325 0.291565 4.12172 2.39747 4.00989 5.06589C3.9967 5.14054 3.9967 5.21691 4.00989 5.29156H3.93171C2.65022 5.29156 1.28034 6.13753 0.882639 8.41164L0.104905 14.6063C-0.531424 19.1545 1.81062 20.2916 4.86853 20.2916H13.1585C16.2075 20.2916 18.4789 18.6451 17.9133 14.6063L17.1444 8.41164C16.676 6.20121 15.3503 5.29156 14.0865 5.29156H13.9303ZM12.4932 5.29156C12.4654 5.21951 12.4506 5.14309 12.4497 5.06589C12.4497 3.14839 10.8899 1.59395 8.96575 1.59395C7.04164 1.59395 5.48184 3.14839 5.48184 5.06589C5.49502 5.14054 5.49502 5.21691 5.48184 5.29156H12.4932ZM6.097 10.4401C5.60889 10.4401 5.21321 10.0329 5.21321 9.5305C5.21321 9.02812 5.60889 8.62086 6.097 8.62086C6.5851 8.62086 6.98079 9.02812 6.98079 9.5305C6.98079 10.0329 6.5851 10.4401 6.097 10.4401ZM11.002 9.5305C11.002 10.0329 11.3977 10.4401 11.8858 10.4401C12.3739 10.4401 12.7696 10.0329 12.7696 9.5305C12.7696 9.02812 12.3739 8.62086 11.8858 8.62086C11.3977 8.62086 11.002 9.02812 11.002 9.5305Z" fill="#D9D2FF"/>
</svg>
