<svg width="26" height="21" viewBox="0 0 26 21" fill="none" xmlns="http://www.w3.org/2000/svg">
<path fill-rule="evenodd" clip-rule="evenodd" d="M6.15129 0.5H20.1295C20.4631 0.5 20.7712 0.678033 20.9375 0.966861L25.0099 8.03827C25.2211 8.405 25.1584 8.86785 24.8571 9.16523L13.6476 20.2311C13.2845 20.5896 12.7004 20.5896 12.3373 20.2311L1.14298 9.18018C0.834741 8.87589 0.777022 8.39955 1.00368 8.03053L5.35679 0.944173C5.52632 0.668193 5.82716 0.5 6.15129 0.5ZM18.3247 3.65714V5.64129H14.3428V7.01694C17.1394 7.16396 19.2376 7.76773 19.2532 8.49143L19.2531 10.0002C19.2375 10.7238 17.1394 11.3276 14.3428 11.4746V14.8507H11.6988V11.4746C8.90224 11.3276 6.80408 10.7238 6.78855 10.0002L6.7886 8.49143C6.80418 7.76773 8.90224 7.16396 11.6988 7.01694V5.64129H7.71699V3.65714H18.3247ZM13.0209 10.4382C16.0053 10.4382 18.4998 9.92762 19.1102 9.24581C18.5925 8.66764 16.72 8.21259 14.3428 8.08761V9.52795C13.9168 9.55035 13.4745 9.56215 13.0209 9.56215C12.5672 9.56215 12.1249 9.55035 11.6988 9.52795V8.08761C9.32162 8.21259 7.44911 8.66764 6.93144 9.24581C7.5419 9.92762 10.0364 10.4382 13.0209 10.4382Z" fill="#009393"/>
</svg>
