<svg width="22" height="22" viewBox="0 0 22 22" fill="none" xmlns="http://www.w3.org/2000/svg">
<rect width="22" height="22" rx="11" fill="white"/>
<path d="M15.1741 6.42903C15.1708 6.42125 15.1653 6.41516 15.1585 6.41184C14.3805 5.98236 13.5595 5.67611 12.716 5.50075C12.7083 5.49904 12.7004 5.50027 12.6933 5.50429C12.6863 5.5083 12.6805 5.51488 12.6767 5.52309C12.5649 5.76723 12.4634 6.018 12.3726 6.27444C11.4634 6.10838 10.5385 6.10838 9.62924 6.27444C9.53784 6.01734 9.43473 5.76652 9.32036 5.52309C9.31644 5.51506 9.31059 5.50863 9.30359 5.50464C9.29659 5.50066 9.28875 5.4993 9.28109 5.50075C8.43749 5.67574 7.6164 5.98202 6.83847 6.41186C6.83181 6.41526 6.82619 6.42106 6.82239 6.42846C5.26669 9.2236 4.84053 11.95 5.04959 14.6427C5.05018 14.6493 5.05186 14.6557 5.05454 14.6615C5.05723 14.6672 5.06085 14.6723 5.0652 14.6764C5.97107 15.4834 6.9843 16.0994 8.06164 16.498C8.06923 16.5008 8.07733 16.5006 8.08486 16.4977C8.09238 16.4947 8.09897 16.489 8.10374 16.4814C8.33513 16.1026 8.54016 15.7015 8.71674 15.2822C8.71917 15.2764 8.72056 15.2701 8.72081 15.2637C8.72106 15.2572 8.72018 15.2508 8.71821 15.2448C8.71625 15.2388 8.71325 15.2334 8.70941 15.2288C8.70557 15.2243 8.70098 15.2209 8.69595 15.2186C8.37263 15.0698 8.05963 14.8904 7.75986 14.6821C7.75442 14.6782 7.74985 14.6728 7.74655 14.6663C7.74325 14.6599 7.74133 14.6525 7.74096 14.6449C7.74058 14.6373 7.74177 14.6297 7.74441 14.6228C7.74705 14.6159 7.75106 14.6099 7.75609 14.6053C7.81899 14.5486 7.88193 14.4896 7.94199 14.4301C7.94732 14.4248 7.95378 14.4214 7.96063 14.4203C7.96748 14.4192 7.97445 14.4204 7.98076 14.4238C9.94463 15.5021 12.0708 15.5021 14.0114 14.4238C14.0177 14.4202 14.0248 14.4188 14.0317 14.4198C14.0387 14.4208 14.0452 14.4242 14.0507 14.4295C14.1107 14.4891 14.1737 14.5486 14.237 14.6053C14.2421 14.6099 14.2461 14.6158 14.2488 14.6227C14.2515 14.6296 14.2527 14.6372 14.2524 14.6448C14.2521 14.6523 14.2502 14.6597 14.2469 14.6662C14.2437 14.6727 14.2391 14.6782 14.2337 14.6821C13.9346 14.8921 13.6214 15.0714 13.2972 15.2181C13.2922 15.2204 13.2876 15.2239 13.2838 15.2285C13.28 15.2331 13.277 15.2386 13.2751 15.2446C13.2731 15.2507 13.2723 15.2572 13.2726 15.2636C13.2729 15.2701 13.2743 15.2764 13.2768 15.2822C13.4563 15.6992 13.661 16.0998 13.8893 16.4808C13.8939 16.4886 13.9005 16.4945 13.9081 16.4975C13.9156 16.5006 13.9238 16.5008 13.9314 16.498C15.0107 16.1006 16.0257 15.4846 16.9327 14.6764C16.9371 14.6725 16.9408 14.6676 16.9435 14.6619C16.9462 14.6561 16.9478 14.6498 16.9483 14.6432C17.1986 11.5302 16.5293 8.82617 15.1741 6.42903ZM9.01003 13.0031C8.41876 13.0031 7.93158 12.3503 7.93158 11.5486C7.93158 10.7469 8.40931 10.094 9.01003 10.094C9.61544 10.094 10.0979 10.7525 10.0885 11.5485C10.0885 12.3503 9.61071 13.0031 9.01003 13.0031ZM12.9974 13.0031C12.4061 13.0031 11.919 12.3503 11.919 11.5486C11.919 10.7469 12.3967 10.094 12.9974 10.094C13.6028 10.094 14.0853 10.7525 14.0758 11.5485C14.0758 12.3503 13.6028 13.0031 12.9974 13.0031Z" fill="#121E2A"/>
</svg>
