<svg width="24" height="25" viewBox="0 0 24 25" fill="none" xmlns="http://www.w3.org/2000/svg">
<path d="M12 0.291565C5.36705 0.291565 0 5.65908 0 12.2916C0 18.9245 5.36752 24.2916 12 24.2916C18.633 24.2916 24 18.924 24 12.2916C24 5.65861 18.6324 0.291565 12 0.291565ZM12 22.4166C6.40345 22.4166 1.875 17.8877 1.875 12.2916C1.875 6.69502 6.40383 2.16656 12 2.16656C17.5965 2.16656 22.125 6.69539 22.125 12.2916C22.125 17.8881 17.5961 22.4166 12 22.4166Z" fill="#EDEDFF"/>
<path d="M12 10.3383C11.4822 10.3383 11.0625 10.758 11.0625 11.2758V17.313C11.0625 17.8307 11.4822 18.2505 12 18.2505C12.5178 18.2505 12.9375 17.8307 12.9375 17.3129V11.2758C12.9375 10.758 12.5178 10.3383 12 10.3383Z" fill="#EDEDFF"/>
<path d="M12 9.19032C12.699 9.19032 13.2656 8.62368 13.2656 7.92469C13.2656 7.2257 12.699 6.65906 12 6.65906C11.301 6.65906 10.7344 7.2257 10.7344 7.92469C10.7344 8.62368 11.301 9.19032 12 9.19032Z" fill="#EDEDFF"/>
</svg>
