<svg width="25" height="25" viewBox="0 0 25 25" fill="none" xmlns="http://www.w3.org/2000/svg">
<path d="M21.0909 11.8409H13.8182C13.5771 11.8409 13.3458 11.7451 13.1754 11.5746C13.0049 11.4042 12.9091 11.1729 12.9091 10.9318V3.65909C12.9091 3.41799 13.0049 3.18675 13.1754 3.01627C13.3458 2.84578 13.5771 2.75 13.8182 2.75H21.0909C21.332 2.75 21.5632 2.84578 21.7337 3.01627C21.9042 3.18675 22 3.41799 22 3.65909V10.9318C22 11.1729 21.9042 11.4042 21.7337 11.5746C21.5632 11.7451 21.332 11.8409 21.0909 11.8409ZM14.7273 10.0227H20.1818V4.56818H14.7273V10.0227ZM17.4545 22.75C16.5555 22.75 15.6767 22.4834 14.9292 21.984C14.1817 21.4845 13.5991 20.7746 13.2551 19.944C12.9111 19.1134 12.821 18.1995 12.9964 17.3178C13.1718 16.436 13.6047 15.6261 14.2404 14.9904C14.8761 14.3547 15.686 13.9218 16.5678 13.7464C17.4495 13.571 18.3634 13.6611 19.194 14.0051C20.0246 14.3491 20.7345 14.9317 21.234 15.6792C21.7334 16.4267 22 17.3055 22 18.2045C21.9986 19.4096 21.5192 20.5649 20.6671 21.4171C19.8149 22.2692 18.6596 22.7486 17.4545 22.75ZM17.4545 15.4773C16.9151 15.4773 16.3879 15.6372 15.9394 15.9369C15.4909 16.2366 15.1413 16.6625 14.9349 17.1609C14.7285 17.6592 14.6744 18.2076 14.7797 18.7366C14.8849 19.2656 15.1447 19.7516 15.5261 20.133C15.9075 20.5144 16.3934 20.7742 16.9225 20.8794C17.4515 20.9846 17.9999 20.9306 18.4982 20.7242C18.9966 20.5178 19.4225 20.1682 19.7222 19.7197C20.0219 19.2712 20.1818 18.7439 20.1818 18.2045C20.1818 17.4812 19.8945 16.7875 19.383 16.2761C18.8716 15.7646 18.1779 15.4773 17.4545 15.4773ZM10.1818 13.6591H2.90909C2.66799 13.6591 2.43675 13.7549 2.26627 13.9254C2.09578 14.0958 2 14.3271 2 14.5682V21.8409C2 22.082 2.09578 22.3132 2.26627 22.4837C2.43675 22.6542 2.66799 22.75 2.90909 22.75H10.1818C10.4229 22.75 10.6542 22.6542 10.8246 22.4837C10.9951 22.3132 11.0909 22.082 11.0909 21.8409V14.5682C11.0909 14.3271 10.9951 14.0958 10.8246 13.9254C10.6542 13.7549 10.4229 13.6591 10.1818 13.6591ZM9.27273 20.9318H3.81818V15.4773H9.27273V20.9318ZM10.1818 11.8409H2.90909C2.66799 11.8409 2.43675 11.7451 2.26627 11.5746C2.09578 11.4042 2 11.1729 2 10.9318V3.65909C2 3.41799 2.09578 3.18675 2.26627 3.01627C2.43675 2.84578 2.66799 2.75 2.90909 2.75H10.1818C10.4229 2.75 10.6542 2.84578 10.8246 3.01627C10.9951 3.18675 11.0909 3.41799 11.0909 3.65909V10.9318C11.0909 11.1729 10.9951 11.4042 10.8246 11.5746C10.6542 11.7451 10.4229 11.8409 10.1818 11.8409ZM3.81818 10.0227H9.27273V4.56818H3.81818V10.0227Z" fill="#EDEDFF"/>
</svg>
