<svg width="26" height="25" viewBox="0 0 26 25" fill="none" xmlns="http://www.w3.org/2000/svg">
<path d="M1 1H5.36364L8.28727 15.6073C8.38703 16.1095 8.66026 16.5607 9.05914 16.8818C9.45802 17.2029 9.95713 17.3734 10.4691 17.3636H21.0727C21.5847 17.3734 22.0838 17.2029 22.4827 16.8818C22.8816 16.5607 23.1548 16.1095 23.2545 15.6073L25 6.45455H6.45455M10.8182 22.8182C10.8182 23.4207 10.3298 23.9091 9.72727 23.9091C9.12478 23.9091 8.63636 23.4207 8.63636 22.8182C8.63636 22.2157 9.12478 21.7273 9.72727 21.7273C10.3298 21.7273 10.8182 22.2157 10.8182 22.8182ZM22.8182 22.8182C22.8182 23.4207 22.3298 23.9091 21.7273 23.9091C21.1248 23.9091 20.6364 23.4207 20.6364 22.8182C20.6364 22.2157 21.1248 21.7273 21.7273 21.7273C22.3298 21.7273 22.8182 22.2157 22.8182 22.8182Z" stroke="#D9D2FF" stroke-width="2" stroke-linecap="round" stroke-linejoin="round"/>
</svg>
