<svg width="24" height="24" viewBox="0 0 24 24" fill="none" xmlns="http://www.w3.org/2000/svg">
<path d="M11.9999 14.8074C10.9115 14.8074 9.82338 14.5413 8.83117 14.0091L1.67655 10.1714C0.639067 9.615 -0.00322909 8.5389 0.000142428 7.36314C0.0035589 6.18739 0.652103 5.11506 1.69278 4.56456L8.86542 0.770622C9.83112 0.259313 10.9072 -0.00799561 11.9999 -0.00799561C13.0926 -0.00799561 14.1688 0.259313 15.1345 0.770622L22.3071 4.56456C23.3478 5.11502 23.9963 6.18734 23.9997 7.36314C24.0031 8.5389 23.3608 9.615 22.3234 10.1714L15.1687 14.0091C14.1768 14.5413 13.0882 14.8073 11.9999 14.8074ZM11.9999 1.86717C11.2129 1.86721 10.4377 2.05976 9.74211 2.42806L2.56955 6.22204C2.1362 6.45126 1.87659 6.87994 1.8752 7.36863C1.8738 7.85732 2.13085 8.28748 2.5629 8.51921L9.71756 12.3568C11.1469 13.1235 12.8533 13.1235 14.2825 12.3568L21.4373 8.51921C21.8693 8.28748 22.1264 7.85736 22.125 7.36863C22.1236 6.87989 21.864 6.45126 21.4306 6.22204L14.2578 2.42806C13.5622 2.05978 12.787 1.86723 11.9999 1.86717ZM15.1687 22.4934L23.5054 18.0218C23.9617 17.7771 24.1332 17.2088 23.8885 16.7526C23.6438 16.2963 23.0755 16.1248 22.6192 16.3695L14.2825 20.8411C12.8533 21.6077 11.1468 21.6077 9.71388 20.8391L1.37716 16.4145C0.919711 16.1717 0.352263 16.3458 0.109604 16.8031C-0.133145 17.2604 0.0408254 17.8279 0.498182 18.0706L8.83121 22.4933C9.82343 23.0255 10.9115 23.2916 12 23.2916C13.0882 23.2916 14.1768 23.0255 15.1687 22.4934ZM15.1687 18.2747L23.5054 13.8032C23.9617 13.5585 24.1332 12.9902 23.8885 12.5339C23.6438 12.0776 23.0755 11.9062 22.6192 12.1509L14.2825 16.6224C12.8533 17.3891 11.1468 17.389 9.71388 16.6205L1.37716 12.1958C0.919711 11.9531 0.352263 12.1271 0.109604 12.5844C-0.133145 13.0418 0.0408254 13.6092 0.498182 13.852L8.83121 18.2747C9.82343 18.8069 10.9115 19.0729 12 19.0729C13.0882 19.0729 14.1768 18.8068 15.1687 18.2747Z" fill="#EDEDFF"/>
</svg>
