<svg width="24" height="24" viewBox="0 0 24 24" fill="none" xmlns="http://www.w3.org/2000/svg">
<path fill-rule="evenodd" clip-rule="evenodd" d="M19.2187 2.40017C18.9006 2.40017 18.5955 2.52654 18.3706 2.75149C18.1456 2.97643 18.0192 3.28153 18.0192 3.59965C18.0192 3.91777 18.1456 4.22286 18.3706 4.44781C18.5955 4.67275 18.9006 4.79913 19.2187 4.79913C19.5368 4.79913 19.8419 4.67275 20.0669 4.44781C20.2918 4.22286 20.4182 3.91777 20.4182 3.59965C20.4182 3.28153 20.2918 2.97643 20.0669 2.75149C19.8419 2.52654 19.5368 2.40017 19.2187 2.40017ZM15.8242 2.40017C16.1072 1.59952 16.6641 0.924694 17.3965 0.494961C18.1289 0.0652283 18.9896 -0.0917365 19.8266 0.0518116C20.6636 0.19536 21.4228 0.630177 21.9702 1.27941C22.5175 1.92864 22.8177 2.75047 22.8177 3.59965C22.8177 4.44882 22.5175 5.27066 21.9702 5.91989C21.4228 6.56912 20.6636 7.00394 19.8266 7.14748C18.9896 7.29103 18.1289 7.13407 17.3965 6.70434C16.6641 6.2746 16.1072 5.59977 15.8242 4.79913H7.22392C6.90579 4.79913 6.6007 4.9255 6.37576 5.15045C6.15081 5.37539 6.02444 5.68049 6.02444 5.99861V9.21322L7.54538 7.58192C7.7653 7.36434 8.06079 7.24014 8.37012 7.23527C8.67945 7.23041 8.9787 7.34525 9.20537 7.5558C9.43202 7.76636 9.56857 8.05636 9.58646 8.36521C9.60436 8.67406 9.50224 8.97788 9.30142 9.21322L6.12639 12.6233C5.4187 13.385 4.23121 13.385 3.52352 12.6233L0.348495 9.21442C0.23513 9.10029 0.145878 8.96453 0.0860494 8.81521C0.0262208 8.66589 -0.00296202 8.50606 0.000237272 8.34523C0.00343656 8.18441 0.0389524 8.02586 0.104672 7.87904C0.170392 7.73222 0.264972 7.60011 0.382786 7.49059C0.500601 7.38106 0.639241 7.29635 0.79046 7.2415C0.941679 7.18665 1.10239 7.16277 1.26302 7.17129C1.42366 7.17981 1.58093 7.22056 1.7255 7.2911C1.87007 7.36165 1.99897 7.46055 2.10453 7.58192L3.62548 9.21322V5.99861C3.62548 5.04424 4.0046 4.12897 4.67943 3.45413C5.35427 2.77929 6.26955 2.40017 7.22392 2.40017H15.8242ZM20.4182 14.7788L21.9391 16.4113C22.1576 16.6367 22.4557 16.7675 22.7695 16.7756C23.0833 16.7838 23.3877 16.6686 23.6175 16.4548C23.8473 16.241 23.9842 15.9456 23.9987 15.632C24.0132 15.3185 23.9043 15.0117 23.6952 14.7776L20.5214 11.3675C20.3556 11.1875 20.1543 11.0439 19.9301 10.9457C19.706 10.8474 19.464 10.7967 19.2193 10.7967C18.9746 10.7967 18.7326 10.8474 18.5085 10.9457C18.2844 11.0439 18.0831 11.1875 17.9173 11.3675L14.7423 14.7776C14.5332 15.0117 14.4242 15.3185 14.4387 15.632C14.4532 15.9456 14.5901 16.241 14.8199 16.4548C15.0497 16.6686 15.3542 16.7838 15.668 16.7756C15.9818 16.7675 16.2799 16.6367 16.4983 16.4113L18.0192 14.7788V17.9934C18.0192 18.3115 17.8929 18.6166 17.6679 18.8416C17.443 19.0665 17.1379 19.1929 16.8198 19.1929H8.21949C7.93652 18.3923 7.37961 17.7174 6.6472 17.2877C5.91479 16.858 5.05403 16.701 4.21707 16.8445C3.38012 16.9881 2.62086 17.4229 2.0735 18.0721C1.52614 18.7214 1.22593 19.5432 1.22593 20.3924C1.22593 21.2416 1.52614 22.0634 2.0735 22.7126C2.62086 23.3618 3.38012 23.7967 4.21707 23.9402C5.05403 24.0838 5.91479 23.9268 6.6472 23.4971C7.37961 23.0673 7.93652 22.3925 8.21949 21.5919H16.8198C17.7741 21.5919 18.6894 21.2127 19.3642 20.5379C20.0391 19.8631 20.4182 18.9478 20.4182 17.9934V14.7788ZM4.82496 19.1929C4.50683 19.1929 4.20174 19.3193 3.9768 19.5442C3.75185 19.7692 3.62548 20.0743 3.62548 20.3924C3.62548 20.7105 3.75185 21.0156 3.9768 21.2405C4.20174 21.4655 4.50683 21.5919 4.82496 21.5919C5.14308 21.5919 5.44817 21.4655 5.67312 21.2405C5.89806 21.0156 6.02444 20.7105 6.02444 20.3924C6.02444 20.0743 5.89806 19.7692 5.67312 19.5442C5.44817 19.3193 5.14308 19.1929 4.82496 19.1929Z" fill="#EDEDFF"/>
</svg>
