<svg width="22" height="22" viewBox="0 0 22 22" fill="none" xmlns="http://www.w3.org/2000/svg">
<path d="M11 0C8.08328 0 5.28344 1.15964 3.22266 3.2218C1.15975 5.28477 0.000571433 8.08256 0 11C0 13.9162 1.16016 16.716 3.22266 18.7782C5.28344 20.8404 8.08328 22 11 22C13.9167 22 16.7166 20.8404 18.7773 18.7782C20.8398 16.716 22 13.9162 22 11C22 8.0838 20.8398 5.28395 18.7773 3.2218C16.7166 1.15964 13.9167 0 11 0Z" fill="url(#paint0_linear_93_522)"/>
<path d="M4.97916 10.8838C8.18635 9.48679 10.3245 8.56571 11.3935 8.12073C14.4495 6.85006 15.0837 6.62937 15.4979 6.62189C15.589 6.62043 15.7918 6.64295 15.9242 6.74994C16.0342 6.84017 16.0651 6.96221 16.0806 7.04789C16.0943 7.13348 16.1132 7.32856 16.0978 7.48084C15.9328 9.22021 15.216 13.4411 14.8517 15.3893C14.6987 16.2136 14.3945 16.49 14.1006 16.517C13.4612 16.5758 12.9765 16.0949 12.3578 15.6894C11.3901 15.0547 10.8435 14.6597 9.90338 14.0404C8.81713 13.3248 9.52182 12.9313 10.1406 12.2885C10.3021 12.1203 13.1174 9.56018 13.1707 9.32798C13.1776 9.29893 13.1845 9.19065 13.1192 9.13359C13.0556 9.07635 12.961 9.09595 12.8923 9.11142C12.7943 9.13342 11.2492 10.1557 8.25166 12.1782C7.81338 12.4797 7.41635 12.6266 7.05885 12.6189C6.66698 12.6104 5.91073 12.3968 5.3487 12.2143C4.6612 11.9903 4.11291 11.8719 4.16104 11.4915C4.1851 11.2935 4.45838 11.0909 4.97916 10.8838Z" fill="#172231"/>
<defs>
<linearGradient id="paint0_linear_93_522" x1="1100" y1="0" x2="1100" y2="2200" gradientUnits="userSpaceOnUse">
<stop stop-color="white"/>
<stop offset="1" stop-color="#229ED9"/>
</linearGradient>
</defs>
</svg>
