<svg width="20" height="21" viewBox="0 0 20 21" fill="none" xmlns="http://www.w3.org/2000/svg">
<path fill-rule="evenodd" clip-rule="evenodd" d="M15.1799 2.70157C15.1799 1.37156 16.2599 0.291565 17.5899 0.291565C18.9199 0.291565 19.9999 1.37156 19.9999 2.70157C19.9999 4.03157 18.9199 5.11157 17.5899 5.11157C16.2599 5.11157 15.1799 4.03157 15.1799 2.70157ZM11.3298 13.0509L14.2198 9.32187L14.1798 9.34186C14.3398 9.12187 14.3698 8.84186 14.2598 8.59186C14.1508 8.34186 13.9098 8.17186 13.6508 8.15187C13.3798 8.12186 13.1108 8.24186 12.9498 8.46186L10.5308 11.5919L7.75976 9.41187C7.58976 9.28187 7.38976 9.23086 7.18976 9.25186C6.99076 9.28187 6.81076 9.39086 6.68976 9.55087L3.73076 13.4019L3.66976 13.4919C3.49976 13.8109 3.57976 14.2209 3.87976 14.4419C4.01976 14.5319 4.16976 14.5919 4.33976 14.5919C4.57076 14.6019 4.78976 14.4809 4.92976 14.2919L7.43976 11.0609L10.2898 13.2019L10.3798 13.2609C10.6998 13.4309 11.0998 13.3519 11.3298 13.0509ZM13.4498 2.07186C13.4098 2.32187 13.3898 2.57187 13.3898 2.82187C13.3898 5.07187 15.2098 6.89086 17.4498 6.89086C17.6998 6.89086 17.9398 6.86187 18.1898 6.82187V14.8909C18.1898 18.2819 16.1898 20.2919 12.7898 20.2919H5.40076C1.99976 20.2919 -0.000244141 18.2819 -0.000244141 14.8909V7.49187C-0.000244141 4.09187 1.99976 2.07186 5.40076 2.07186H13.4498Z" fill="#EDEDFF"/>
</svg>
