<svg width="30" height="27" viewBox="0 0 30 27" fill="none" xmlns="http://www.w3.org/2000/svg">
<path fill-rule="evenodd" clip-rule="evenodd" d="M22.9989 8.25362H29.134C29.134 3.32767 26.1825 0.450012 21.1816 0.450012H8.08648C3.08559 0.450012 0.134033 3.32767 0.134033 8.19079V18.8092C0.134033 23.6724 3.08559 26.55 8.08648 26.55H21.1816C26.1825 26.55 29.134 23.6724 29.134 18.8092V18.3568H22.9989C20.1516 18.3568 17.8434 16.1064 17.8434 13.3304C17.8434 10.5543 20.1516 8.30389 22.9989 8.30389V8.25362ZM22.9989 10.415H28.0514C28.6493 10.415 29.134 10.8876 29.134 11.4706V15.1399C29.1271 15.72 28.6464 16.1887 28.0514 16.1955H23.1149C21.6735 16.2144 20.413 15.2521 20.086 13.8833C19.9223 13.0335 20.1522 12.1567 20.714 11.4877C21.2758 10.8188 22.1122 10.4261 22.9989 10.415ZM23.218 14.2728H23.6949C24.3071 14.2728 24.8034 13.789 24.8034 13.1921C24.8034 12.5953 24.3071 12.1114 23.6949 12.1114H23.218C22.9253 12.1081 22.6433 12.2191 22.435 12.4198C22.2268 12.6205 22.1096 12.8941 22.1096 13.1796C22.1096 13.7785 22.6038 14.2659 23.218 14.2728ZM7.0038 8.25362H15.1882C15.8004 8.25362 16.2967 7.76978 16.2967 7.17293C16.2967 6.57608 15.8004 6.09224 15.1882 6.09224H7.0038C6.39662 6.0922 5.90242 6.56843 5.89536 7.16036C5.89532 7.75928 6.38955 8.24674 7.0038 8.25362Z" fill="#D9D2FF"/>
</svg>
